inDegrees=yes
name=ik_OwnShooting_orientations.mot
DataType=double
version=3
OpenSimVersion=4.3-2021-08-27-4bc7ad9
endheader
time	pelvis_tilt	pelvis_list	pelvis_rotation	pelvis_tx	pelvis_ty	pelvis_tz	hip_flexion_r	hip_adduction_r	hip_rotation_r	knee_angle_r	knee_angle_r_beta	ankle_angle_r	subtalar_angle_r	mtp_angle_r	hip_flexion_l	hip_adduction_l	hip_rotation_l	knee_angle_l	knee_angle_l_beta	ankle_angle_l	subtalar_angle_l	mtp_angle_l	lumbar_extension	lumbar_bending	lumbar_rotation	arm_flex_r	arm_add_r	arm_rot_r	elbow_flex_r	pro_sup_r	wrist_flex_r	wrist_dev_r	arm_flex_l	arm_add_l	arm_rot_l	elbow_flex_l	pro_sup_l	wrist_flex_l	wrist_dev_l
5	0.1059595274010983	-0.8345053343396158	-147.3418702726987	0	0.9399999999999999	0	44.19553242298295	-10.08786747333664	0	59.82616101087964	1.044163488468109	-5.016268816818738	0	0	44.19553242298295	-10.08786747333664	0	59.82616101087964	1.044163488468109	-5.016268816818738	0	0	2.53618107711648	-2.908364385599425	1.914886815300196	20.41888659600498	6.948708886189927	56.65822442876631	0.004623969815650671	45.16390561256442	0	0	0	-13.170151120241	0	75.99582168442106	45.16390561256442	0	0
5.01	0.1125382866307569	-0.8662160014562575	-147.3758063676338	0	0.9399999999999999	0	44.19566487494976	-10.08781690805245	0	59.82618348443756	1.044163880705689	-5.016256603018082	0	0	44.19566487494976	-10.08781690805245	0	59.82618348443756	1.044163880705689	-5.016256603018082	0	0	2.500792278141307	-2.943601649337167	1.979341543093009	20.26268968967525	6.838193418127527	57.41883038527439	0.0046646607384509	45.16383100684255	0	0	0	-13.17030534426762	0	75.9956577466648	45.16383100684255	0	0
5.02	0.09842394073200821	-0.8511753401635752	-147.366589743895	0	0.9399999999999999	0	44.19582585069126	-10.0877554838512	0	59.82621080110671	1.044164357471506	-5.016241769059316	0	0	44.19582585069126	-10.0877554838512	0	59.82621080110671	1.044164357471506	-5.016241769059316	0	0	2.494727801993113	-2.914342899033932	1.953235920512792	19.95237984440727	7.132086549692906	58.02381971385925	0.004675983283562954	45.1637403675706	0	0	0	-13.17049280810968	0	75.99545850461925	45.1637403675706	0	0
5.03	0.08879354059396972	-0.8605925110394068	-147.3339322748237	0	0.9399999999999999	0	44.1959424686069	-10.08771108478757	0	59.82623061998245	1.044164703376142	-5.016231052369108	0	0	44.1959424686069	-10.08771108478757	0	59.82623061998245	1.044164703376142	-5.016231052369108	0	0	2.467864114763358	-2.896615442777971	1.934615825433426	19.52379601186838	7.282066330662125	57.95969849212263	0.00472045249138087	45.1636748219797	0	0	0	-13.17062876760135	0	75.99531416493818	45.1636748219797	0	0
5.04	0.1016839307384444	-0.8700977286671017	-147.3461979211695	0	0.9399999999999999	0	44.1960734667551	-10.08766118569127	0	59.82625286731961	1.044165091665425	-5.016219008081292	0	0	44.1960734667551	-10.08766118569127	0	59.82625286731961	1.044165091665425	-5.016219008081292	0	0	2.479035684441806	-2.918730363695585	1.949247135419727	19.21147760568769	7.343584223180476	58.35512402260468	0.004758413903130639	45.16360115988658	0	0	0	-13.17078142475184	0	75.99515202662526	45.16360115988658	0	0
5.05	0.1156916610722336	-0.8677390105209316	-147.3382758759467	0	0.9399999999999999	0	44.19613289260185	-10.08763875355687	0	59.82626303041923	1.044165269044976	-5.016213603465846	0	0	44.19613289260185	-10.08763875355687	0	59.82626303041923	1.044165269044976	-5.016213603465846	0	0	2.470894124564017	-2.939364718558886	1.96079308147879	19.08081078439273	7.253705888796511	58.46153285145868	0.004796148471093777	45.16356799079274	0	0	0	-13.17085102644842	0	75.9950784744557	45.16356799079274	0	0
5.06	0.1220788413845083	-0.8539646622561207	-147.3456506126469	0	0.9399999999999999	0	44.19627866265338	-10.08758388011854	0	59.82628801837691	1.044165705167111	-5.016200389297693	0	0	44.19627866265338	-10.08758388011854	0	59.82628801837691	1.044165705167111	-5.016200389297693	0	0	2.503771292699984	-2.887464457725434	1.943888782306735	19.22297708920736	7.679132773592586	58.34450957687229	0.004713251958341453	45.16348681479217	0	0	0	-13.17102204630833	0	75.99489805295585	45.16348681479217	0	0
5.07	0.136641331495993	-0.8639658752809882	-147.3397438889717	0	0.9399999999999999	0	44.19644575307394	-10.08752098953815	0	59.8263166583973	1.044166205029764	-5.016185245952602	0	0	44.19644575307394	-10.08752098953815	0	59.8263166583973	1.044166205029764	-5.016185245952602	0	0	2.498362503543764	-2.903860021349322	1.935092213287766	19.29520759959934	7.972760300139717	58.34585592619037	0.004667375859612106	45.1633937735001	0	0	0	-13.17121807753334	0	75.99469124295877	45.1633937735001	0	0
5.08	0.1289281534634428	-0.91394750313747	-147.335852376593	0	0.9399999999999999	0	44.196570927301	-10.08747336199959	0	59.82633791043642	1.04416657594782	-5.016173756828433	0	0	44.196570927301	-10.08747336199959	0	59.82633791043642	1.04416657594782	-5.016173756828433	0	0	2.426238262418269	-2.957018369162415	1.950674469663003	18.81807271552684	7.77511816523019	58.46163660874844	0.004764940101124716	45.16332343739708	0	0	0	-13.17136394856721	0	75.99453631300712	45.16332343739708	0	0
5.09	0.1463819069394291	-0.9099921155777526	-147.3350940765481	0	0.9399999999999999	0	44.19663460954469	-10.08744938027044	0	59.82634881250672	1.044166766224842	-5.016167983204424	0	0	44.19663460954469	-10.08744938027044	0	59.82634881250672	1.044166766224842	-5.016167983204424	0	0	2.450626645338291	-2.937256575961591	1.922310730233214	18.7529577610292	7.695476882201798	58.35392948026207	0.0047728940435527	45.16328795705068	0	0	0	-13.17143860416565	0	75.99445749265426	45.16328795705068	0	0
5.1	0.1500298563623871	-0.9193549130827637	-147.3337309512474	0	0.9399999999999999	0	44.19672462542403	-10.08741525799519	0	59.82636413707158	1.044167033688955	-5.01615975863186	0	0	44.19672462542403	-10.08741525799519	0	59.82636413707158	1.044167033688955	-5.01615975863186	0	0	2.424905382296263	-2.943336280651287	1.954044939410604	18.52857821662072	7.635017771788561	58.37296548622871	0.004804959576824838	45.16323752994664	0	0	0	-13.17154371495123	0	75.99434607873867	45.16323752994664	0	0
5.11	0.1728685405908882	-0.9317370262462377	-147.3611138533123	0	0.9399999999999999	0	44.19684435775303	-10.08736978563885	0	59.82638448492089	1.044167388825921	-5.016148795219836	0	0	44.19684435775303	-10.08736978563885	0	59.82638448492089	1.044167388825921	-5.016148795219836	0	0	2.430063077775229	-2.960120520137114	1.982731354671464	18.28491555769263	7.553322206327473	58.60681388086567	0.004838271941432766	45.16317034891401	0	0	0	-13.17168335651807	0	75.99419788432792	45.16317034891401	0	0
5.12	0.185001863888262	-0.9311357183415236	-147.3526135550287	0	0.9399999999999999	0	44.19690552423789	-10.08734682113367	0	59.82639497546257	1.044167571920414	-5.016143270799508	0	0	44.19690552423789	-10.08734682113367	0	59.82639497546257	1.044167571920414	-5.016143270799508	0	0	2.434137574291132	-2.93531288657482	1.99189049686293	18.16908948393972	7.554102379946557	58.65860602273024	0.004830120762519743	45.16313635204106	0	0	0	-13.17175516491637	0	75.99412217778386	45.16313635204106	0	0
5.13	0.1907418311427169	-0.9503299101387966	-147.3584707218876	0	0.9399999999999999	0	44.19704408676393	-10.08729415826628	0	59.82641849696576	1.04416798244809	-5.016130574069205	0	0	44.19704408676393	-10.08729415826628	0	59.82641849696576	1.04416798244809	-5.016130574069205	0	0	2.411922028373209	-2.972274775805035	1.990572519019672	17.69029127970603	7.343542711764303	58.89550075981321	0.004924022796367795	45.16305855126924	0	0	0	-13.17191665188774	0	75.99395067695278	45.16305855126924	0	0
